<?xml version="1.0" encoding="UTF-8"?>
<svg width="512" height="512" viewBox="0 0 512 512" xmlns="http://www.w3.org/2000/svg">
  <rect x="16" y="16" width="480" height="480" rx="72" fill="#FFFFFF"/>

  <!-- Barcode bars -->
  <g fill="#111111">
    <rect x="90" y="110" width="10" height="180"/>
    <rect x="110" y="110" width="18" height="180"/>
    <rect x="140" y="110" width="10" height="180"/>
    <rect x="162" y="110" width="22" height="180"/>
    <rect x="198" y="110" width="10" height="180"/>
    <rect x="220" y="110" width="18" height="180"/>
    <rect x="252" y="110" width="10" height="180"/>
    <rect x="274" y="110" width="22" height="180"/>
    <rect x="310" y="110" width="10" height="180"/>
    <rect x="332" y="110" width="18" height="180"/>
    <rect x="364" y="110" width="10" height="180"/>
    <rect x="386" y="110" width="22" height="180"/>
  </g>

  <!-- V mark -->
  <defs>
    <linearGradient id="gradV" x1="0%" y1="0%" x2="100%" y2="100%">
      <stop offset="0%" stop-color="#3B82F6"/>
      <stop offset="100%" stop-color="#7C3AED"/>
    </linearGradient>
  </defs>

  <path d="M120 175
           L215 340
           Q235 375 256 375
           Q277 375 297 340
           L392 95"
        fill="none"
        stroke="url(#gradV)"
        stroke-width="42"
        stroke-linecap="round"
        stroke-linejoin="round"/>
</svg>